<svg xmlns="http://www.w3.org/2000/svg" viewBox="0 0 36 36"><title>NSX-V</title><g id="85a1702a-b933-444d-892b-0461e4bc3bb9" data-name="Layer 2"><path d="M15.1,3.1a15,15,0,0,0,0,30A15.4,15.4,0,0,0,17,33a14.79,14.79,0,0,1-2.4-2.41A12.44,12.44,0,0,1,4.48,24.63q0-.3,0-.6a13.25,13.25,0,0,1,1.27-4.85,1.63,1.63,0,0,0,.45.06,21.73,21.73,0,0,0,3.39,4.42A21.87,21.87,0,0,0,12.5,26.1a11.23,11.23,0,0,1-.23-1.73,19.5,19.5,0,0,1-1.81-1.58,20.84,20.84,0,0,1-3.1-4,1.85,1.85,0,0,0,.32-2.59l-.16-.18a21.06,21.06,0,0,1,2.92-3.34,19.63,19.63,0,0,1,2.91-2.22,1.84,1.84,0,0,0,2.53,0l.81.58L18,10.56c-.5-.39-1-.77-1.5-1.12a1.33,1.33,0,0,0,0-.28,2.28,2.28,0,0,0,0-.26,13.74,13.74,0,0,1,5.65-1.08c.28.19.54.41.81.62l2.54-1.15A14.93,14.93,0,0,0,15.1,3.1ZM4.71,18.48a16.19,16.19,0,0,0-1.29,4,12.46,12.46,0,0,1-.79-4.33,12.32,12.32,0,0,1,1.21-5.32,15.38,15.38,0,0,0,.9,3.46A1.82,1.82,0,0,0,4.71,18.48Zm8.08-9.1A21.69,21.69,0,0,0,6.4,15.54l-.19,0a1.92,1.92,0,0,0-.41.05A12.87,12.87,0,0,1,5,11.26c0-.14,0-.26,0-.39A12.53,12.53,0,0,1,8.54,7.52a12.11,12.11,0,0,1,4.28,1.23,1.92,1.92,0,0,0-.05.41A1.5,1.5,0,0,0,12.79,9.38Zm3.09-1.6a1.84,1.84,0,0,0-2.37-.09A15.5,15.5,0,0,0,10.4,6.56a12.46,12.46,0,0,1,4.7-.92,12.29,12.29,0,0,1,5,1A16.38,16.38,0,0,0,15.88,7.78Z" fill="#0065ab"/><path d="M24.6,9.71,14.11,14.33v9.19c0,6,4.94,8.76,7.9,10.43A12.51,12.51,0,0,1,24,35.19l.22.22H25l.21-.21A11.71,11.71,0,0,1,27.2,34c3-1.67,7.9-4.46,7.9-10.43V14.33Zm6.19,7.8L26.42,27.82a1.3,1.3,0,0,1-1.26.89H25a1.3,1.3,0,0,1-1.24-.89L19.44,17.58a1.24,1.24,0,0,1-.13-.51A1.08,1.08,0,0,1,20.41,16a1.14,1.14,0,0,1,1.12.78l3.59,9,3.65-9a1.12,1.12,0,0,1,1-.71,1.06,1.06,0,0,1,1.09,1.05A1.11,1.11,0,0,1,30.79,17.51Z" fill="#0094d2"/></g></svg>